<?xml version="1.0" standalone="no"?>
<!DOCTYPE svg PUBLIC "-//W3C//DTD SVG 20010904//EN"
 "http://www.w3.org/TR/2001/REC-SVG-20010904/DTD/svg10.dtd">
<svg version="1.0" xmlns="http://www.w3.org/2000/svg"
 width="300.000000pt" height="300.000000pt" viewBox="0 0 300.000000 300.000000"
 preserveAspectRatio="xMidYMid meet">
<metadata>
Created by potrace 1.10, written by Peter Selinger 2001-2011
</metadata>
<g transform="translate(0.000000,300.000000) scale(0.100000,-0.100000)"
fill="#000000" stroke="none">
<path d="M309 2287 c-19 -4 -41 -11 -49 -14 -8 -3 -17 -7 -20 -7 -19 -4 -82
-52 -115 -90 -60 -66 -60 -67 -86 -132 l-24 -59 1 -461 c1 -480 2 -499 46
-602 21 -51 95 -140 123 -148 11 -4 27 -12 35 -18 33 -26 140 -49 216 -48 47
1 130 37 170 74 68 61 118 117 137 153 27 53 35 180 30 540 -6 499 -7 524 -33
580 -64 140 -175 221 -320 234 -43 4 -93 3 -111 -2z m41 -26 c0 -6 -4 -13 -10
-16 -5 -3 -10 -11 -10 -17 0 -7 13 0 28 15 19 18 35 25 46 21 15 -6 15 -9 -5
-30 -34 -36 -13 -42 24 -7 24 23 38 29 56 24 l25 -7 -33 -26 c-19 -14 -32 -31
-30 -37 3 -7 18 1 39 18 19 17 41 30 49 31 22 0 121 -81 121 -100 0 -3 -16
-12 -35 -19 -19 -7 -35 -17 -35 -22 0 -13 39 -2 61 17 8 8 19 14 23 14 6 0 46
-78 51 -100 1 -3 5 -13 9 -23 5 -9 6 -29 3 -42 -2 -14 0 -28 5 -31 5 -3 8 -73
6 -160 -3 -151 -3 -154 -28 -172 -23 -18 -49 -80 -65 -154 -10 -51 16 -220 42
-273 46 -93 61 -86 17 8 -32 70 -49 216 -33 285 14 65 46 135 59 127 10 -6 3
-93 -10 -110 -4 -5 -15 -34 -25 -64 -22 -66 -15 -127 20 -187 24 -41 25 -51
22 -158 -3 -133 -14 -158 -50 -115 -65 77 -87 105 -87 115 0 6 -7 18 -16 25
-9 8 -25 33 -35 56 -16 37 -18 75 -20 287 -1 239 -1 245 22 283 29 48 96 123
103 115 3 -3 6 -1 6 4 0 5 14 18 30 27 16 10 30 23 30 29 0 7 -5 6 -14 -1 -12
-10 -21 -5 -48 24 -64 70 -409 265 -466 265 -19 -1 11 -19 100 -63 71 -34 128
-65 128 -68 0 -3 -13 -4 -29 -1 -16 2 -45 -5 -67 -16 -32 -16 -44 -18 -59 -9
-63 36 -175 60 -175 37 0 -5 7 -10 15 -10 15 0 155 -46 162 -53 2 -2 -4 -20
-12 -40 -9 -22 -15 -68 -15 -117 0 -44 -4 -80 -8 -80 -14 0 -32 23 -32 42 0
28 -46 53 -78 42 -15 -5 -27 -17 -27 -25 0 -9 -5 -23 -11 -30 -23 -30 -25 -51
-5 -56 14 -3 21 -15 23 -37 3 -30 4 -31 52 -31 27 0 50 -4 52 -10 1 -5 5 -23
8 -38 4 -18 11 -25 19 -21 7 3 -1 -6 -18 -20 -38 -33 -64 -40 -120 -32 l-45 7
0 152 c0 84 -3 162 -6 175 -5 19 -2 22 21 22 18 0 28 6 32 20 5 19 6 19 29 1
29 -23 62 -17 66 12 2 13 13 24 28 28 l25 6 -30 12 c-16 7 -54 15 -83 18 l-54
6 4 -33 c3 -32 -22 -63 -38 -47 -11 10 32 152 54 179 51 63 88 101 113 113 26
14 32 12 111 -29 175 -91 274 -150 313 -185 43 -40 85 -64 85 -50 0 7 -8 18
-17 25 -11 8 -13 13 -5 14 6 0 12 5 12 11 0 6 -7 8 -17 5 -9 -4 -25 1 -37 12
-46 42 -155 109 -275 169 -68 34 -118 64 -110 67 46 16 79 18 79 7z m91 -246
c11 -4 27 -21 37 -38 14 -27 17 -65 19 -257 6 -673 7 -652 -39 -699 -61 -62
-125 -54 -169 23 -7 11 -10 81 -9 185 3 337 0 663 -6 673 -3 5 2 28 12 50 27
61 86 84 155 63z m188 -104 c57 -47 36 -52 -24 -7 -26 20 -51 36 -56 36 -12 0
-49 37 -49 50 0 12 65 -28 129 -79z m-451 42 c-16 -19 -46 -16 -58 6 -15 29
-14 29 30 18 30 -9 37 -14 28 -24z m400 -52 c54 -40 58 -49 31 -77 -20 -21
-24 -22 -39 -9 -9 8 -23 15 -31 15 -9 0 -5 -7 10 -19 23 -17 23 -19 7 -42 -9
-13 -16 -31 -16 -41 0 -9 -4 -19 -9 -22 -5 -3 -9 46 -10 109 0 63 3 115 8 115
4 0 26 -13 49 -29z m-412 -86 c20 -15 13 -18 -23 -9 -13 4 -23 10 -23 15 0 14
24 11 46 -6z m-16 -31 c0 -12 -34 -33 -53 -34 -15 0 -15 3 -5 20 12 18 58 29
58 14z m78 -51 c6 -9 12 -30 12 -47 l0 -30 -21 23 c-14 15 -27 20 -38 15 -51
-22 -80 9 -45 48 22 23 71 18 92 -9z m12 -202 c0 -37 -3 -40 -54 -67 -47 -24
-59 -27 -92 -19 -37 9 -39 12 -42 53 -3 45 2 50 32 27 11 -8 31 -15 45 -15 29
0 91 34 91 50 0 5 5 10 10 10 6 0 10 -17 10 -39z m2 -116 c1 -30 1 -55 -2 -55
-3 0 -14 7 -24 15 -11 8 -36 15 -55 15 -72 0 -111 11 -111 31 0 23 8 23 34 4
29 -22 96 -7 126 29 21 27 28 18 32 -39z m493 -74 c4 -117 -6 -136 -24 -49 -9
38 -8 66 0 110 7 32 14 57 16 54 2 -2 6 -54 8 -115z m-618 34 c70 -12 134 -38
128 -53 -3 -7 -5 -22 -5 -33 0 -19 -1 -19 -30 3 -22 16 -49 23 -95 26 l-65 4
0 35 c0 26 4 34 14 30 8 -3 32 -9 53 -12z m76 -100 c33 -15 62 -52 52 -63 -2
-2 -21 6 -43 17 -46 23 -149 40 -138 23 4 -6 23 -14 44 -18 47 -9 124 -42 134
-57 4 -7 8 -32 8 -56 0 -43 -1 -44 -19 -27 -24 22 -127 49 -157 42 -21 -6 -22
-3 -26 57 -5 108 -4 110 55 105 29 -2 69 -13 90 -23z m377 -205 c4 -3 11 -16
15 -30 4 -14 32 -49 62 -79 l55 -53 -37 -38 -38 -39 -78 80 -78 80 20 20 c24
24 39 61 39 97 l1 27 16 -30 c9 -16 19 -32 23 -35z m-398 28 c25 -7 46 -23 63
-48 14 -21 56 -66 93 -100 177 -166 203 -193 190 -201 -8 -5 -31 10 -68 46
-190 188 -280 254 -367 271 -27 5 -33 11 -33 31 0 24 2 24 43 18 23 -4 59 -11
79 -17z m18 -103 c20 -14 64 -51 97 -83 33 -31 89 -82 123 -112 60 -52 62 -55
39 -61 -23 -6 -46 -4 -100 7 -14 3 -46 25 -70 50 -52 54 -106 91 -140 96 -18
2 -32 18 -56 68 -18 36 -33 73 -33 82 0 17 3 17 51 -2 28 -10 68 -31 89 -45z
m342 -96 c62 -66 76 -85 66 -96 -31 -38 -42 -34 -124 44 -43 42 -92 84 -107
93 l-28 18 42 0 c23 1 47 6 52 11 6 6 13 11 17 11 3 0 40 -37 82 -81z m-361
-42 c39 -24 109 -83 109 -92 0 -11 -18 -4 -40 15 -13 11 -26 20 -29 20 -3 0
-26 18 -50 40 -49 44 -45 51 10 17z"/>
<path d="M545 2150 c-26 -29 -11 -36 24 -10 36 25 38 30 13 30 -11 0 -27 -9
-37 -20z"/>
<path d="M125 2119 c-3 -4 7 -11 22 -14 15 -4 63 -18 106 -32 87 -27 110 -25
50 5 -48 25 -171 53 -178 41z"/>
<path d="M628 1723 c-53 -51 -88 -98 -88 -118 0 -4 17 15 39 42 21 27 58 65
82 83 64 49 65 50 45 50 -10 0 -45 -26 -78 -57z"/>
<path d="M677 1661 c-20 -22 -39 -53 -43 -68 -3 -16 -9 -39 -14 -53 -41 -123
-38 -347 5 -435 27 -53 83 -121 92 -111 3 3 -2 16 -11 28 -56 77 -67 100 -77
153 -6 33 -12 110 -12 170 -1 95 2 120 25 184 15 40 39 90 53 112 38 54 26 69
-18 20z"/>
<path d="M74 1622 c4 -7 15 -12 24 -12 9 -1 34 -7 55 -14 39 -14 57 -7 33 13
-20 17 -121 28 -112 13z"/>
<path d="M85 1572 c6 -5 26 -12 45 -16 21 -4 31 -3 25 3 -6 5 -26 12 -45 16
-23 5 -32 4 -25 -3z"/>
<path d="M64 1183 c14 -14 167 -60 163 -50 -5 15 -114 57 -146 57 -13 0 -21
-3 -17 -7z"/>
<path d="M510 1000 c0 -18 83 -116 111 -130 10 -6 19 -7 19 -3 -1 16 -130 148
-130 133z"/>
<path d="M100 965 c7 -9 43 -32 79 -52 63 -35 120 -81 164 -130 12 -13 30 -23
41 -23 19 1 19 2 4 11 -10 5 -18 17 -18 24 0 8 -3 15 -8 15 -4 0 -28 19 -53
43 -39 36 -192 127 -214 127 -4 0 -2 -7 5 -15z"/>
<path d="M426 938 c5 -12 119 -109 136 -116 4 -2 5 4 2 13 -7 17 -123 115
-136 115 -4 0 -5 -6 -2 -12z"/>
<path d="M1899 2278 c-7 -27 -11 -59 -14 -138 -5 -113 -9 -1027 -5 -1257 l2
-163 26 -1 c122 -6 205 -4 218 5 12 9 15 72 17 403 1 215 5 384 8 374 4 -9 14
-55 23 -101 10 -47 26 -116 36 -155 10 -38 38 -144 61 -235 23 -91 47 -183 54
-205 7 -22 16 -52 19 -67 6 -28 6 -28 96 -28 l89 0 12 42 c6 24 15 54 20 68 6
21 22 89 35 160 2 8 12 56 23 105 12 50 23 100 25 113 3 13 9 38 15 55 5 18
19 84 32 147 12 63 24 117 26 120 2 2 8 -2 13 -10 5 -8 5 -19 0 -25 -5 -6 -7
-178 -6 -383 2 -216 -1 -372 -6 -372 -20 0 5 -20 25 -20 22 -1 143 2 207 4
l35 1 -1 515 c-1 581 -5 957 -12 1013 l-4 39 -132 -7 c-162 -7 -194 -13 -200
-34 -5 -15 -80 -385 -91 -446 -12 -72 -36 -202 -40 -230 -3 -16 -8 -37 -10
-45 -4 -16 -6 -23 -26 -155 -13 -86 -26 -116 -40 -93 -6 9 -9 6 -9 -11 0 -16
4 -21 14 -18 10 4 13 1 10 -8 -3 -7 -12 -16 -20 -19 -18 -7 -18 -33 1 -52 20
-21 19 -34 -4 -34 -17 0 -81 61 -81 77 0 3 18 23 39 44 27 27 44 37 56 33 14
-6 16 -3 12 12 -3 10 -17 82 -31 159 -30 161 -44 234 -57 290 -10 44 -35 163
-49 237 -5 26 -16 76 -25 110 -21 80 -24 94 -33 143 l-8 40 -172 3 c-94 1
-172 1 -173 0z m321 -32 c13 -3 13 -4 0 -9 -8 -3 -26 -8 -40 -11 -14 -3 -44
-21 -65 -40 -38 -32 -41 -33 -67 -20 -33 17 -34 21 -11 46 25 28 9 31 -19 4
-17 -17 -31 -23 -46 -19 -27 7 -27 11 -2 38 18 19 28 20 127 17 59 -1 115 -4
123 -6z m-273 -14 c-10 -10 -17 -22 -17 -26 0 -4 25 -18 55 -32 30 -14 57 -30
60 -35 4 -5 23 -18 43 -28 20 -11 62 -42 92 -70 59 -53 78 -52 36 3 l-25 33
26 12 c14 6 26 10 27 9 4 -6 26 -105 31 -143 4 -22 20 -105 36 -185 40 -193
45 -217 74 -342 14 -59 25 -113 25 -120 0 -7 -19 -24 -41 -38 -22 -13 -42 -35
-46 -48 -7 -29 21 -69 66 -96 28 -16 36 -17 57 -6 18 10 30 11 49 2 14 -7 35
-12 45 -12 17 0 18 -3 8 -25 -13 -30 -25 -30 -99 -7 -67 21 -133 75 -155 128
-24 56 -14 223 19 321 16 49 19 69 10 61 -55 -46 -86 -299 -48 -391 31 -74
134 -145 216 -150 34 -2 38 -5 43 -38 3 -20 12 -42 20 -48 10 -9 11 -19 3 -51
-10 -35 -16 -41 -47 -47 -34 -6 -155 18 -173 36 -4 4 -12 22 -17 40 l-9 33 32
-24 c42 -32 56 -37 133 -43 39 -4 64 -2 64 4 0 12 -18 17 -85 26 -27 4 -70 16
-95 28 -25 12 -46 22 -47 22 -1 0 -20 74 -43 165 -22 91 -47 190 -55 220 -14
52 -13 59 6 110 11 29 40 80 65 112 27 36 38 58 30 58 -23 0 -88 -87 -107
-142 -18 -54 -23 -53 -33 6 -6 29 -10 36 -17 25 -7 -12 -9 -11 -9 2 0 18 28
53 108 137 28 30 52 56 52 58 0 2 -8 1 -17 -3 -32 -11 -112 -96 -119 -126 -8
-38 -21 -24 -29 34 l-7 46 64 53 c99 84 95 80 72 80 -32 0 -144 -97 -151 -132
-3 -16 -9 -25 -12 -19 -4 6 -12 1 -20 -12 -13 -20 -13 -21 2 -8 10 7 18 10 18
5 3 -23 -3 -669 -7 -673 -2 -2 -46 40 -97 94 l-94 98 3 151 c3 192 30 280 102
341 47 39 39 52 -8 15 -24 -19 -51 -54 -66 -86 -14 -30 -26 -54 -27 -54 -2 0
1 502 3 568 0 9 11 5 33 -12 17 -15 37 -30 43 -35 6 -5 37 -29 70 -54 97 -75
148 -127 137 -138 -6 -6 -22 2 -47 26 -21 19 -54 48 -74 63 -21 15 -39 30 -42
33 -7 8 -95 59 -103 59 -20 0 10 -31 43 -44 21 -8 42 -21 47 -28 4 -7 30 -29
56 -48 26 -19 59 -43 72 -53 14 -10 23 -23 19 -28 -3 -5 -22 3 -42 19 -49 38
-108 71 -154 88 -58 20 -45 -1 18 -30 62 -28 154 -92 154 -107 0 -16 -22 -10
-56 16 -36 28 -131 68 -148 62 -6 -2 16 -17 49 -34 33 -17 77 -39 97 -50 l37
-20 -29 -33 c-17 -19 -30 -36 -31 -39 -3 -21 -13 -48 -53 -147 -51 -122 -75
-224 -73 -299 1 -47 5 -53 69 -119 66 -67 93 -80 70 -33 -6 12 -18 55 -28 96
-19 84 -15 218 11 311 23 86 16 102 -11 25 -41 -118 -49 -267 -18 -349 18 -47
10 -60 -17 -26 -41 53 -52 88 -46 153 4 55 58 235 77 262 4 6 15 34 25 63 19
60 75 136 149 204 28 26 46 47 39 48 -6 0 -14 -4 -17 -9 -3 -4 -34 18 -68 51
-73 69 -154 129 -218 161 -45 22 -45 22 -47 80 -2 55 -1 57 24 57 25 0 25 -1
10 -18z m1000 -94 c-2 -108 -10 -128 -35 -88 -15 25 -87 60 -182 90 -41 13
-76 25 -78 26 -2 1 0 17 3 36 l7 34 66 -1 c37 -1 80 1 96 4 16 3 50 6 77 6
l49 0 -3 -107z m-713 45 c10 -61 8 -73 -13 -73 -10 0 -24 -7 -31 -15 -12 -14
-16 -13 -40 10 -14 14 -35 25 -45 25 -17 0 -17 2 5 24 19 21 92 64 111 66 4 0
9 -17 13 -37z m454 -52 c15 -10 52 -26 82 -34 66 -19 167 -84 174 -111 7 -27
-4 -40 -17 -22 -7 8 -30 23 -51 35 -22 11 -42 24 -45 29 -12 17 -135 72 -163
72 -23 0 -28 4 -28 25 0 30 13 31 48 6z m4 -57 c24 -9 72 -36 108 -59 36 -23
84 -54 108 -69 23 -14 42 -33 42 -41 0 -21 -6 -19 -48 14 -54 43 -192 101
-241 101 -40 0 -41 1 -35 28 12 49 9 48 66 26z m95 -120 c43 -20 91 -48 106
-60 16 -13 34 -24 40 -24 7 0 12 -18 13 -45 0 -25 0 -45 -1 -45 -1 0 -19 13
-40 30 -20 16 -52 34 -71 39 -18 5 -47 19 -63 30 -16 12 -31 21 -34 21 -3 0
-18 5 -34 11 -22 8 -25 12 -13 20 12 8 10 9 -7 4 -12 -3 -24 -1 -28 5 -3 5
-15 10 -26 10 -20 0 -22 4 -13 36 5 19 10 20 49 13 24 -5 79 -25 122 -45z
m-127 -45 c3 -3 26 -15 51 -26 54 -24 77 -50 25 -28 -47 20 -95 19 -118 -2
-25 -23 -23 -37 4 -19 51 36 144 2 224 -81 27 -29 58 -53 67 -53 22 0 22 17 0
25 -10 3 -29 20 -43 39 -13 18 -38 41 -54 50 -16 9 -26 19 -23 22 7 7 62 -21
103 -52 17 -13 36 -24 43 -24 7 0 9 -11 6 -30 -3 -16 -2 -30 3 -30 5 0 7 -13
4 -30 -3 -20 0 -30 9 -30 10 0 10 -3 1 -12 -8 -8 -12 -46 -12 -105 0 -51 -4
-93 -9 -93 -19 0 -24 -43 -6 -56 14 -10 17 -28 16 -91 -1 -73 -4 -84 -43 -156
-24 -42 -46 -76 -49 -77 -3 0 -11 11 -17 25 -10 22 -9 29 8 47 11 12 30 42 43
67 20 42 22 58 20 200 -2 118 -6 159 -18 177 -21 33 -19 44 9 44 29 0 42 15
20 24 -27 10 -73 -21 -82 -57 -10 -39 -33 -42 -46 -6 -12 36 -2 59 34 72 17 6
30 18 30 27 0 8 -20 37 -45 63 -52 54 -81 59 -145 27 -44 -22 -60 -45 -60 -86
0 -22 -4 -25 -20 -21 -17 4 -20 2 -15 -13 4 -12 -1 -19 -15 -23 -23 -6 -24 -4
-10 43 6 19 20 85 31 145 26 143 23 138 51 123 13 -7 25 -16 28 -19z m125
-190 c47 -43 55 -59 31 -59 -21 0 -46 -40 -46 -73 0 -16 10 -37 23 -50 31 -29
48 -101 47 -201 0 -79 -17 -185 -19 -125 -1 15 -8 32 -16 39 -11 9 -12 17 -5
30 22 41 3 172 -29 202 -11 11 -12 8 -6 -17 11 -50 25 -138 25 -167 0 -21 -5
-28 -19 -28 -17 0 -19 10 -21 113 -1 61 -2 150 -2 197 0 46 -2 88 -5 93 -8 14
-29 -40 -37 -98 -5 -28 -10 -53 -12 -57 -2 -3 -19 1 -37 10 -17 9 -53 17 -79
17 -43 0 -48 2 -48 22 0 33 28 44 81 31 24 -6 48 -15 54 -19 15 -15 35 -10 28
6 -3 9 -25 21 -49 27 -43 12 -43 12 -23 31 15 14 28 17 51 12 21 -5 28 -4 24
4 -4 6 -18 11 -32 11 -48 0 -23 55 36 79 37 14 37 14 85 -30z m112 -314 c5
-95 2 -132 -11 -175 -31 -107 -59 -111 -31 -6 21 77 17 224 -7 270 -13 26 -13
30 6 51 l21 24 8 -22 c5 -12 11 -76 14 -142z m-259 106 c47 -16 48 -21 29 -96
-12 -45 -14 -47 -20 -24 -10 41 -75 62 -110 37 -22 -16 -31 -82 -15 -108 26
-42 92 -12 86 39 -4 32 -32 39 -59 15 -18 -16 -19 -16 -19 2 0 44 42 57 81 25
34 -27 30 -86 -8 -117 -24 -19 -30 -20 -44 -8 -8 7 -30 17 -47 20 -18 4 -32 8
-32 10 0 6 41 198 45 211 5 15 55 12 113 -6z m-118 -231 c12 0 102 -91 96 -98
-4 -3 -16 4 -29 15 -31 29 -61 43 -91 43 -19 0 -26 5 -26 18 0 24 10 34 28 27
7 -3 17 -5 22 -5z m115 -34 c-8 -41 -15 -44 -33 -15 -11 17 -10 23 10 39 29
23 31 21 23 -24z m157 -39 c-1 -15 4 -27 13 -31 18 -6 20 -47 3 -64 -9 -9 -7
-16 6 -31 12 -13 18 -35 18 -60 -1 -56 26 -87 83 -95 l45 -7 0 -49 c0 -39 -6
-55 -32 -88 -30 -38 -37 -41 -82 -41 l-50 -1 42 36 c36 31 72 80 72 99 0 3 -7
5 -15 5 -8 0 -15 -3 -15 -7 0 -5 -20 -35 -45 -68 -25 -32 -47 -64 -49 -70 -7
-18 -23 8 -29 48 -4 27 -2 37 7 37 19 0 98 88 91 100 -3 6 -23 -10 -43 -34
-20 -25 -40 -45 -44 -45 -5 -1 -8 86 -8 193 0 107 -3 203 -7 213 -7 17 -6 17
17 2 17 -12 24 -25 22 -42z m-229 -14 c77 -46 45 -79 -49 -52 -49 15 -102 59
-71 59 9 0 17 7 17 16 0 23 44 13 103 -23z m393 -82 c-1 -33 -5 -59 -9 -58
-13 3 -71 -72 -63 -80 7 -8 37 22 56 56 15 28 23 5 21 -62 -1 -34 -3 -37 -20
-27 -11 5 -27 10 -36 10 -43 0 -59 58 -26 94 10 12 31 45 46 74 15 28 28 52
29 52 1 0 2 -27 2 -59z m-1008 -5 c36 -49 95 -111 136 -140 25 -18 26 -22 26
-120 l0 -101 -98 0 -97 0 -3 153 -3 153 44 -49 c66 -74 125 -124 139 -119 8 2
-26 42 -83 98 -84 83 -96 99 -98 132 -1 20 -1 37 2 37 2 0 18 -20 35 -44z
m649 -10 c-3 -7 -9 -34 -12 -60 -8 -54 -25 -62 -25 -12 0 43 16 86 31 86 6 0
9 -6 6 -14z m-166 -259 c14 -4 42 -2 63 4 21 6 40 9 42 7 2 -3 -2 -30 -8 -60
l-12 -57 -70 4 c-76 5 -83 8 -89 45 -3 14 -8 42 -12 63 l-7 38 33 -19 c19 -10
46 -22 60 -25z m535 -83 c-5 -13 -46 -21 -46 -9 0 3 10 17 23 31 18 21 23 23
25 9 2 -9 1 -23 -2 -31z"/>
<path d="M1936 1862 c-2 -4 16 -16 41 -26 27 -11 40 -22 33 -26 -7 -4 6 -12
31 -18 52 -13 58 -10 24 12 -14 9 -25 13 -25 9 0 -4 -6 1 -12 10 -16 20 -85
50 -92 39z"/>
<path d="M1955 1740 c-3 -5 1 -10 11 -10 15 0 15 -2 -1 -26 -16 -25 -16 -25 3
-15 19 10 32 32 32 52 0 12 -37 12 -45 -1z"/>
<path d="M2331 1453 c-18 -64 -14 -138 9 -164 l21 -24 -8 35 c-4 19 -7 70 -7
113 1 42 0 77 -2 77 -2 0 -8 -17 -13 -37z"/>
<path d="M2320 1041 c0 -26 71 -58 142 -65 25 -2 51 -7 57 -11 6 -3 11 -2 11
3 0 13 -26 23 -75 28 -22 2 -61 15 -87 28 -27 14 -48 21 -48 17z"/>
<path d="M2850 2215 c17 -21 80 -58 86 -52 7 6 -74 67 -89 67 -5 0 -4 -7 3
-15z"/>
<path d="M2765 2193 c75 -39 129 -74 142 -92 18 -25 28 -4 10 22 -8 13 -49 40
-89 60 -85 42 -139 51 -63 10z"/>
<path d="M2575 1493 c-40 -10 -33 -18 16 -18 27 0 49 3 49 8 0 4 -4 7 -9 7 -5
0 -15 2 -23 4 -7 2 -22 1 -33 -1z"/>
<path d="M1979 909 c50 -47 98 -76 108 -65 5 5 -143 116 -154 116 -5 -1 16
-23 46 -51z"/>
<path d="M1930 871 c0 -18 127 -111 152 -111 13 0 -11 24 -56 55 -80 55 -96
65 -96 56z"/>
<path d="M1934 791 c16 -18 76 -46 76 -36 0 7 -74 55 -84 55 -5 0 -1 -9 8 -19z"/>
<path d="M1235 2256 c-75 -18 -119 -43 -171 -94 -69 -68 -96 -136 -93 -231 1
-42 11 -111 21 -154 27 -116 79 -189 273 -380 101 -100 170 -177 180 -200 20
-47 23 -144 6 -184 -14 -36 -79 -74 -111 -66 -49 13 -123 117 -136 193 -10 56
-20 63 -83 55 -31 -4 -72 -9 -91 -11 -82 -10 -102 -19 -83 -38 4 -4 9 -34 10
-65 7 -195 177 -359 375 -361 35 -1 70 1 78 3 57 15 77 22 110 41 88 51 159
138 192 239 26 82 21 212 -11 274 -11 23 -21 51 -21 63 0 11 -4 20 -9 20 -5 0
-16 16 -26 36 -20 42 -75 97 -227 226 -133 114 -160 157 -161 262 -1 134 75
208 146 142 29 -27 67 -96 74 -135 2 -14 7 -29 11 -32 12 -10 212 45 222 61
24 37 -2 135 -49 190 -79 92 -99 106 -200 139 -72 23 -149 26 -226 7z m185
-30 c6 -8 18 -12 26 -9 20 7 117 -43 151 -79 l28 -30 -55 28 c-30 16 -61 34
-68 41 -20 19 -52 35 -52 25 0 -10 49 -49 105 -82 103 -61 105 -63 121 -118 9
-29 13 -59 11 -66 -4 -11 -54 -27 -82 -27 -3 0 -26 -6 -52 -14 -27 -8 -49 -15
-50 -15 -1 0 -7 26 -14 58 -9 46 -20 65 -55 101 -41 41 -47 43 -85 38 -23 -3
-51 -15 -62 -26 -20 -19 -21 -19 -46 -2 -34 24 -95 41 -148 41 -24 0 -43 4
-43 8 0 12 84 92 97 92 6 0 13 4 15 8 5 15 120 40 184 41 42 1 65 -3 74 -13z
m-314 -156 c74 -13 132 -39 140 -63 9 -30 -2 -31 -38 -4 -42 31 -63 38 -131
38 -49 1 -54 3 -50 20 6 22 3 22 79 9z m49 -62 c17 -7 34 -18 38 -25 4 -7 15
-13 22 -13 8 0 15 -9 15 -20 0 -25 -1 -25 -45 2 -26 15 -60 23 -112 26 -59 4
-73 8 -69 19 4 8 6 19 6 25 0 12 101 3 145 -14z m26 -84 c27 -13 49 -29 49
-35 0 -6 -7 -8 -16 -5 -40 15 -167 36 -185 31 -30 -10 -12 -25 29 -25 61 -1
165 -24 170 -37 2 -9 -8 -13 -32 -13 -31 0 -40 -6 -66 -42 -16 -22 -30 -53
-30 -68 0 -25 -15 -40 -39 -40 -13 0 -53 114 -42 118 7 2 8 10 2 20 -5 9 -12
44 -16 76 l-8 59 68 -7 c40 -4 87 -17 116 -32z m30 -168 c-24 -26 -27 -35 -18
-53 7 -17 6 -27 -3 -38 -12 -14 -15 -13 -35 5 -35 33 -38 69 -10 112 29 43 75
56 88 24 6 -14 0 -27 -22 -50z m118 -102 c24 -27 48 -48 53 -46 5 1 7 -2 3 -8
-6 -9 7 -14 28 -11 4 0 7 -5 8 -11 0 -7 32 -38 70 -68 173 -136 247 -344 188
-524 -34 -103 -131 -200 -224 -225 -90 -23 -198 -18 -127 7 41 14 106 74 136
127 24 40 28 42 50 32 l24 -11 -46 -61 c-25 -33 -51 -63 -56 -67 -6 -4 -8 -10
-4 -13 10 -10 75 53 102 99 14 24 35 46 48 49 30 8 34 2 19 -29 -6 -15 -9 -29
-7 -32 3 -3 12 11 21 31 8 19 20 39 26 43 8 4 7 9 -2 15 -11 6 -8 14 11 33 13
15 19 26 12 26 -6 0 -20 -13 -32 -29 -20 -29 -56 -49 -67 -37 -3 3 12 25 35
50 50 54 82 115 82 156 0 40 -10 38 -49 -10 -34 -43 -51 -49 -71 -25 -15 18 7
78 50 135 20 27 24 42 20 65 l-7 30 -12 -42 c-6 -24 -15 -43 -20 -43 -8 0 -45
-78 -56 -118 -4 -15 -1 -30 9 -41 15 -16 14 -20 -10 -52 -14 -19 -46 -69 -71
-112 -31 -51 -64 -92 -97 -118 -28 -22 -59 -47 -69 -55 -15 -12 -25 -13 -53
-4 -44 15 -53 30 -17 30 36 0 101 47 138 99 15 22 35 43 44 46 38 12 89 115
126 255 27 104 39 226 20 210 -15 -13 -31 4 -37 40 -4 25 -4 25 -13 -4 -7 -25
-4 -33 18 -52 l26 -22 -26 -136 c-27 -140 -43 -172 -43 -88 0 27 -8 62 -19 82
-14 26 -16 42 -10 65 13 44 0 164 -24 215 -11 25 -19 48 -19 53 1 4 -4 7 -12
7 -7 0 -21 12 -31 26 -27 42 -107 114 -126 114 -24 0 -29 21 -10 46 16 21 16
21 36 -11 11 -18 40 -55 64 -81z m-199 -5 c0 -13 -33 -19 -46 -8 -19 16 -17
37 4 42 16 3 42 -17 42 -34z m143 1 c63 -44 87 -67 87 -81 0 -6 7 -17 15 -23
8 -6 24 -36 34 -66 21 -60 39 -210 25 -210 -15 1 -47 52 -38 59 18 13 15 87
-6 143 -25 68 -105 156 -150 164 -33 7 -32 6 -24 28 8 21 9 21 57 -14z m-25
-39 c82 -59 132 -150 132 -241 l0 -44 -55 54 c-40 39 -55 62 -55 81 0 18 -6
30 -19 34 -11 3 -22 12 -25 20 -3 8 -16 15 -29 15 -16 0 -37 14 -61 41 -31 36
-34 43 -21 53 24 17 102 10 133 -13z m-21 -123 c21 -24 37 -48 31 -48 -2 0
-19 16 -38 35 -19 19 -29 35 -24 35 6 0 20 -10 31 -22z m-51 -335 c-5 -31 14
-93 40 -135 31 -48 27 -52 -61 -67 -115 -20 -120 -19 -143 47 -11 31 -23 76
-26 98 -7 48 -6 49 109 59 38 4 72 8 74 11 8 7 9 4 7 -13z m473 -45 c-36 -71
-118 -166 -139 -161 -16 4 -13 12 23 69 30 45 48 63 64 64 13 0 28 13 42 35
28 49 36 44 10 -7z m-357 -168 c18 -11 42 -20 53 -20 15 0 9 -10 -30 -50 -49
-50 -125 -87 -150 -72 -26 15 -72 59 -97 92 l-27 36 67 1 c52 1 115 14 149 32
2 0 17 -8 35 -19z"/>
<path d="M1295 2210 c3 -5 12 -10 18 -10 7 -1 28 -14 47 -30 19 -17 40 -30 46
-30 7 0 29 -16 48 -35 20 -19 40 -35 45 -35 4 0 13 -11 19 -25 6 -14 16 -25
21 -25 4 0 28 -18 52 -40 24 -22 48 -40 53 -40 6 0 0 9 -12 20 -25 24 -31 50
-7 30 28 -23 15 6 -15 35 -16 16 -30 25 -30 20 0 -4 8 -14 17 -21 10 -7 15
-16 11 -20 -5 -4 -16 2 -25 13 -10 10 -26 22 -35 26 -10 3 -18 13 -18 20 0 20
-79 83 -155 123 -64 34 -91 42 -80 24z"/>
<path d="M1285 2165 c39 -19 75 -35 82 -35 6 0 13 -3 15 -7 2 -5 37 -35 78
-68 41 -33 90 -76 108 -95 18 -19 29 -26 24 -15 -35 70 -292 255 -354 255 -15
0 0 -12 47 -35z"/>
<path d="M1110 2141 c0 -4 30 -11 68 -14 37 -4 91 -14 121 -23 60 -17 77 -13
34 9 -57 29 -223 50 -223 28z"/>
<path d="M1530 1950 c32 -40 40 -47 40 -32 0 10 -54 72 -64 72 -4 0 7 -18 24
-40z"/>
<path d="M1465 1375 c0 -69 3 -125 6 -125 16 0 26 178 13 228 -13 48 -19 17
-19 -103z"/>
<path d="M1150 1580 c0 -5 16 -10 35 -10 59 0 111 -57 129 -143 9 -38 27 -23
21 16 -15 85 -77 147 -146 147 -22 0 -39 -4 -39 -10z"/>
<path d="M1134 1142 c4 -7 4 -21 1 -32 -6 -18 -12 -20 -43 -14 -61 10 -73 15
-66 27 4 7 1 6 -7 -1 -12 -11 -11 -15 5 -28 11 -8 35 -14 53 -14 26 0 33 -4
33 -20 0 -24 -7 -25 -55 -4 -48 20 -68 13 -31 -11 36 -24 114 -36 143 -22 27
12 32 32 6 22 -10 -3 -22 -7 -28 -8 -14 -3 -13 35 3 62 12 20 12 25 -3 40 -10
9 -15 10 -11 3z"/>
<path d="M1110 991 c-52 -4 -69 -8 -54 -14 32 -11 122 -6 142 9 13 11 14 13 2
12 -8 -1 -49 -4 -90 -7z"/>
<path d="M1240 898 c-30 -11 -75 -20 -100 -20 -41 0 -43 -1 -26 -14 11 -8 30
-14 42 -14 36 0 122 32 140 51 21 23 14 23 -56 -3z"/>
</g>
</svg>
