<?xml version="1.0" standalone="no"?>
<!DOCTYPE svg PUBLIC "-//W3C//DTD SVG 20010904//EN"
 "http://www.w3.org/TR/2001/REC-SVG-20010904/DTD/svg10.dtd">
<svg version="1.0" xmlns="http://www.w3.org/2000/svg"
 width="300.000000pt" height="300.000000pt" viewBox="0 0 300.000000 300.000000"
 preserveAspectRatio="xMidYMid meet">
<metadata>
Created by potrace 1.10, written by Peter Selinger 2001-2011
</metadata>
<g transform="translate(0.000000,300.000000) scale(0.100000,-0.100000)"
fill="#000000" stroke="none">
<path d="M2675 2980 c-4 -6 -12 -9 -18 -8 -7 1 -59 -10 -117 -26 -176 -47
-243 -63 -300 -76 -30 -6 -84 -20 -120 -31 -118 -34 -304 -81 -380 -95 -41 -7
-113 -27 -160 -43 -47 -17 -86 -31 -87 -31 -14 0 -26 -64 -29 -154 -6 -213
-19 -1444 -15 -1479 3 -26 113 -53 351 -87 71 -10 216 -36 445 -80 55 -10 127
-22 160 -25 33 -4 101 -13 150 -21 119 -18 114 -19 131 22 13 31 15 175 15
1077 0 573 0 1048 0 1055 -1 15 -17 16 -26 2z m-23 -1081 c-1 -567 -3 -1033
-5 -1036 -3 -2 -31 0 -63 6 -33 5 -84 13 -114 16 -65 7 -216 33 -515 90 -38 7
-108 18 -155 25 -47 6 -110 16 -140 20 -30 5 -81 12 -112 15 l-57 6 5 132 c5
164 13 887 14 1220 l0 247 28 0 c16 0 32 3 36 7 3 4 12 8 19 9 7 1 40 11 74
23 34 11 79 23 100 26 21 4 81 18 133 32 52 14 109 27 126 28 18 2 40 8 50 13
25 13 175 55 194 54 8 0 51 10 95 23 44 13 113 31 154 40 41 9 86 22 100 30
14 7 28 12 30 9 2 -2 3 -468 3 -1035z"/>
<path d="M1308 2930 c-15 -4 -29 -6 -31 -3 -5 5 -121 -23 -152 -36 -105 -46
-185 -85 -185 -91 0 -4 -12 -13 -27 -21 -76 -39 -162 -113 -266 -231 -122
-138 -218 -364 -218 -514 0 -60 -32 -131 -105 -234 -25 -36 -63 -99 -84 -141
-20 -42 -47 -90 -58 -107 -12 -16 -22 -35 -22 -42 0 -6 -7 -25 -16 -42 -13
-25 -13 -35 -4 -59 7 -16 13 -29 14 -30 0 0 59 -10 130 -22 l129 -22 2 -215
c3 -244 17 -446 33 -476 14 -26 88 -95 138 -127 78 -51 147 -66 315 -67 431
-4 740 4 769 20 l25 13 -25 7 c-14 3 -211 5 -439 4 -227 -1 -432 3 -455 8
-107 23 -128 30 -172 58 -72 45 -131 118 -144 176 -10 45 -12 262 -2 291 2 7
24 15 48 19 76 11 64 24 -36 37 -12 2 -15 23 -15 122 0 79 -4 128 -13 142 -20
36 -65 53 -162 60 -86 6 -91 7 -97 31 -4 19 9 54 57 146 35 67 74 135 87 152
13 17 33 49 46 72 12 22 39 65 59 94 30 42 39 65 43 113 10 104 24 193 38 234
13 37 26 61 100 177 30 48 141 181 162 196 6 3 28 23 49 43 22 20 52 43 68 53
15 9 28 20 28 24 0 4 5 8 11 8 6 0 25 11 42 24 18 13 43 27 57 31 14 4 30 11
35 15 12 10 118 49 165 61 19 5 94 11 165 15 125 6 159 2 289 -31 49 -12 94
-29 122 -46 26 -16 36 -17 64 -7 l33 11 -44 23 c-24 12 -47 20 -51 17 -5 -2
-8 0 -8 5 0 10 -70 33 -150 48 -8 1 -31 7 -50 12 -44 11 -256 13 -292 2z"/>
<path d="M2726 2632 c-3 -3 -6 -11 -6 -19 0 -9 16 -13 55 -13 l55 0 -5 -312
c-2 -172 -5 -512 -7 -755 l-3 -441 -40 1 c-36 1 -40 -1 -43 -25 -3 -25 -2 -26
45 -21 91 10 82 -75 82 797 1 494 -3 777 -9 781 -13 8 -117 14 -124 7z"/>
<path d="M2239 829 c-1 -8 -2 -108 -3 -224 -1 -116 -6 -283 -10 -372 l-9 -163
-71 2 c-39 0 -313 -3 -608 -7 l-538 -7 -2 58 c0 33 -2 109 -3 169 -2 61 -3
116 -4 122 -1 7 -11 11 -23 9 -22 -3 -23 -7 -24 -102 -3 -175 6 -251 32 -281
l22 -26 444 7 c243 4 522 7 619 7 125 -1 180 3 192 12 20 14 23 75 32 525 4
170 2 272 -4 272 -5 0 -16 3 -25 6 -10 4 -16 1 -17 -7z"/>
</g>
</svg>
