<?xml version="1.0" standalone="no"?>
<!DOCTYPE svg PUBLIC "-//W3C//DTD SVG 20010904//EN"
 "http://www.w3.org/TR/2001/REC-SVG-20010904/DTD/svg10.dtd">
<svg version="1.0" xmlns="http://www.w3.org/2000/svg"
 width="300.000000pt" height="300.000000pt" viewBox="0 0 300.000000 300.000000"
 preserveAspectRatio="xMidYMid meet">
<metadata>
Created by potrace 1.10, written by Peter Selinger 2001-2011
</metadata>
<g transform="translate(0.000000,300.000000) scale(0.100000,-0.100000)"
fill="#000000" stroke="none">
<path d="M372 2254 c-18 -13 -21 -19 -11 -30 10 -12 15 -10 35 11 13 15 24 28
24 31 0 9 -27 3 -48 -12z"/>
<path d="M416 2231 l-26 -28 22 -10 c20 -9 29 -5 62 23 22 19 33 34 25 35 -8
0 -23 2 -35 4 -13 3 -30 -6 -48 -24z"/>
<path d="M1910 2243 c0 -17 23 -29 28 -15 2 7 8 12 13 12 4 0 6 -6 3 -14 -3
-8 3 -19 15 -25 17 -9 22 -7 35 21 9 17 16 32 16 34 0 2 -25 2 -55 1 -35 -1
-55 -6 -55 -14z"/>
<path d="M2115 2252 c-54 -2 -63 -6 -86 -34 l-27 -32 36 -13 c32 -11 39 -10
57 6 26 24 63 43 98 50 15 3 29 11 30 16 2 11 -13 12 -108 7z"/>
<path d="M2844 2238 c-3 -4 0 -8 6 -8 6 0 26 -11 43 -24 56 -41 57 -41 57 1
l0 38 -50 1 c-28 0 -53 -3 -56 -8z"/>
<path d="M221 2218 c-22 -11 -41 -24 -41 -28 0 -4 16 -10 35 -13 48 -8 136
-54 257 -134 118 -79 131 -88 181 -127 27 -21 43 -27 62 -22 14 4 25 12 25 20
0 15 -84 97 -118 115 -11 6 -56 37 -99 67 -43 31 -112 72 -153 91 -41 19 -82
38 -91 43 -11 6 -31 2 -58 -12z"/>
<path d="M487 2205 l-38 -33 35 -20 35 -21 35 27 c19 15 34 31 33 35 -1 4 -16
16 -32 27 l-30 18 -38 -33z"/>
<path d="M1320 2221 c76 -30 135 -67 240 -149 54 -43 120 -116 120 -133 0 -5
4 -9 9 -9 14 0 -16 97 -45 147 -54 93 -188 163 -310 163 l-59 -1 45 -18z"/>
<path d="M2656 2208 c-3 -17 -3 -35 1 -38 5 -4 37 -15 73 -25 89 -26 157 -58
191 -91 26 -25 29 -26 29 -8 0 25 -44 73 -84 90 -17 7 -51 27 -76 44 -25 16
-53 30 -62 30 -26 0 -48 11 -42 21 3 5 -1 9 -9 9 -8 0 -17 -14 -21 -32z"/>
<path d="M2740 2233 c0 -5 10 -13 23 -19 62 -30 144 -78 163 -95 21 -20 21
-20 27 0 5 22 -9 37 -60 67 -18 10 -33 21 -33 25 0 4 -23 12 -50 18 -60 13
-70 13 -70 4z"/>
<path d="M1234 2222 c4 -7 16 -12 28 -12 28 0 124 -56 173 -101 22 -20 66 -58
97 -83 31 -25 66 -59 78 -76 19 -27 50 -41 50 -22 0 29 -181 182 -298 252 -68
40 -142 64 -128 42z"/>
<path d="M2175 2204 c-52 -19 -91 -55 -71 -66 9 -5 33 4 68 28 77 52 78 66 3
38z"/>
<path d="M1148 2190 c-20 -11 -39 -24 -42 -28 -3 -5 30 -12 73 -16 43 -3 100
-13 126 -21 66 -19 237 -152 271 -210 7 -13 16 -16 29 -11 16 6 10 15 -41 64
-32 31 -76 69 -96 85 -21 15 -51 40 -69 56 -35 33 -139 85 -184 94 -20 4 -42
0 -67 -13z"/>
<path d="M1914 2194 c3 -9 6 -26 6 -38 0 -16 29 -44 112 -106 61 -47 123 -91
137 -99 14 -7 35 -22 46 -32 22 -20 65 -16 65 6 0 33 -25 73 -67 105 -25 19
-54 43 -64 53 -11 9 -23 17 -27 17 -4 0 -23 11 -42 25 -18 13 -55 32 -81 40
-26 9 -53 23 -59 31 -17 19 -34 18 -26 -2z m161 -105 c64 -36 143 -104 133
-114 -4 -4 -20 1 -36 11 -43 28 -172 125 -172 130 0 10 25 2 75 -27z"/>
<path d="M584 2155 c-11 -12 -27 -24 -35 -27 -10 -4 -11 -9 -3 -17 8 -9 20 -8
48 4 41 17 57 42 35 56 -18 11 -20 11 -45 -16z"/>
<path d="M2181 2153 l-44 -27 34 -28 c19 -15 47 -40 63 -55 l28 -28 -6 34 c-3
18 -6 40 -6 48 0 10 -4 11 -19 3 -11 -5 -28 -10 -38 -9 -12 0 -7 6 15 16 25
13 32 23 32 45 0 34 -3 34 -59 1z"/>
<path d="M136 2151 c-17 -18 -16 -19 26 -26 24 -4 48 -11 53 -15 6 -4 24 -12
40 -18 17 -5 46 -17 65 -25 20 -8 46 -11 60 -8 22 6 16 11 -50 42 -165 78
-168 79 -194 50z"/>
<path d="M2640 2132 c0 -13 13 -22 50 -31 28 -7 63 -23 78 -35 15 -12 53 -39
84 -59 31 -21 60 -42 63 -47 3 -6 13 -10 21 -10 12 0 14 7 9 33 -12 53 -72 93
-220 143 -85 28 -85 28 -85 6z"/>
<path d="M1061 2116 l-22 -23 69 -6 c69 -6 113 -20 145 -46 15 -13 19 -12 38
7 11 12 29 22 39 22 11 0 20 4 20 9 0 16 -70 33 -226 55 -34 5 -44 2 -63 -18z"/>
<path d="M618 2105 c-27 -15 -35 -24 -27 -32 11 -11 89 13 89 27 0 23 -28 25
-62 5z"/>
<path d="M96 2101 c-14 -15 -10 -18 42 -30 31 -7 78 -24 103 -36 45 -24 46
-24 75 -4 27 18 28 19 6 19 -12 0 -30 4 -40 9 -18 9 -62 24 -129 46 -37 11
-44 11 -57 -4z"/>
<path d="M1917 2096 c-6 -15 57 -86 76 -86 4 0 7 -6 7 -12 0 -7 28 -26 61 -43
34 -16 78 -45 99 -62 31 -27 40 -30 49 -19 12 15 3 26 -54 61 -50 31 -149 99
-160 110 -52 52 -73 66 -78 51z"/>
<path d="M2636 2084 c-3 -9 -6 -26 -6 -38 0 -20 6 -23 41 -24 65 -3 176 -60
252 -130 l27 -26 0 25 c-1 18 -13 32 -48 53 -26 16 -76 51 -112 77 -52 37
-128 79 -145 79 -2 0 -6 -7 -9 -16z"/>
<path d="M658 2067 c-16 -6 -28 -13 -28 -16 1 -3 16 -16 34 -27 43 -28 62 -15
40 27 -8 16 -16 29 -17 28 -1 -1 -14 -6 -29 -12z"/>
<path d="M1036 2068 c-25 -14 -19 -25 13 -20 41 6 134 -23 169 -53 28 -24 30
-24 35 -5 9 34 -44 63 -145 78 -32 5 -63 5 -72 0z"/>
<path d="M67 2038 c-4 -12 -5 -23 -3 -25 1 -2 25 -6 51 -9 27 -3 67 -12 89
-20 52 -17 63 -17 69 0 4 11 -10 19 -51 32 -31 9 -76 23 -100 30 -53 17 -49
18 -55 -8z"/>
<path d="M1916 2015 c-7 -29 -1 -45 19 -45 24 0 139 -58 185 -94 24 -19 48
-32 53 -29 15 9 -23 40 -91 74 -37 18 -88 52 -113 76 l-47 44 -6 -26z"/>
<path d="M1008 2011 c-8 -10 -13 -22 -9 -27 3 -5 42 -9 86 -9 57 0 90 -5 114
-17 50 -26 59 -22 23 10 -31 28 -128 62 -175 62 -12 0 -30 -8 -39 -19z"/>
<path d="M2617 1989 c-8 -31 -1 -39 34 -39 32 0 145 -44 169 -66 8 -7 42 -35
74 -60 l59 -47 -6 37 c-7 41 -21 56 -117 119 -79 52 -105 63 -162 72 -41 6
-46 5 -51 -16z"/>
<path d="M507 1980 c3 -12 19 -28 35 -36 16 -8 47 -31 69 -51 25 -23 45 -33
56 -29 13 5 7 13 -28 38 -24 17 -60 43 -79 58 -54 41 -59 43 -53 20z"/>
<path d="M46 1974 c-9 -23 -7 -54 3 -54 17 0 30 26 24 48 -6 26 -18 29 -27 6z"/>
<path d="M119 1958 c34 -30 64 -34 69 -7 2 11 -11 18 -50 26 l-52 10 33 -29z"/>
<path d="M1483 1963 c3 -10 8 -33 12 -50 7 -33 26 -42 52 -25 14 9 -18 62 -50
82 -16 10 -18 9 -14 -7z"/>
<path d="M200 1935 c0 -33 -23 -41 -67 -26 -26 10 -38 10 -46 2 -6 -6 -20 -11
-30 -11 -15 0 -18 -5 -13 -22 3 -13 6 -42 6 -66 0 -40 1 -42 20 -32 11 6 20
21 20 34 0 33 42 51 78 34 15 -7 28 -23 30 -35 2 -11 12 -29 23 -39 19 -17 19
-16 19 47 0 35 3 81 6 102 6 35 5 37 -20 37 -21 0 -26 -5 -26 -25z"/>
<path d="M1018 1953 c-11 -3 -18 -14 -18 -28 0 -21 4 -23 53 -23 67 0 148 -12
165 -25 9 -7 12 -2 12 20 0 28 -4 31 -58 47 -56 15 -117 19 -154 9z"/>
<path d="M1922 1914 c0 -32 4 -44 14 -44 22 0 158 -70 167 -86 8 -14 27 -10
27 6 0 4 -43 29 -95 55 -78 38 -121 65 -102 65 15 0 130 -52 161 -73 38 -26
66 -35 66 -19 -1 11 -116 84 -181 114 l-57 26 0 -44z"/>
<path d="M2607 1934 c-13 -13 -7 -42 11 -49 9 -4 38 -9 63 -10 61 -4 118 -34
167 -90 38 -44 42 -46 62 -32 20 14 18 16 -54 71 -98 73 -228 131 -249 110z"/>
<path d="M530 1918 c0 -7 23 -30 50 -50 28 -21 50 -32 50 -25 -1 17 -100 92
-100 75z"/>
<path d="M2239 1873 c-104 -82 -209 -268 -245 -433 -24 -110 -14 -193 28 -253
25 -35 34 -29 14 10 -53 103 4 401 97 504 12 14 54 49 92 79 39 29 70 57 69
61 -1 5 -2 20 -2 34 -2 32 -11 31 -53 -2z"/>
<path d="M690 1854 c-107 -84 -147 -138 -160 -218 -4 -28 -7 -52 -5 -54 2 -2
12 16 23 40 24 53 127 157 165 165 25 5 27 9 27 54 0 27 -1 49 -2 48 -2 0 -23
-16 -48 -35z"/>
<path d="M520 1863 c1 -20 66 -66 81 -57 14 8 11 24 -4 24 -8 0 -24 11 -37 25
-28 29 -40 32 -40 8z"/>
<path d="M1008 1852 c-2 -17 -2 -31 1 -30 21 2 22 -4 5 -17 -18 -15 -17 -15
16 -8 19 4 51 7 70 8 19 0 46 8 60 18 13 9 35 17 47 17 25 0 31 15 9 23 -8 3
-57 9 -109 13 l-94 7 -5 -31z"/>
<path d="M1910 1853 c0 -11 12 -25 30 -40 12 -9 19 -8 33 2 18 13 17 14 -12
29 -33 17 -51 20 -51 9z"/>
<path d="M2655 1849 c-44 -12 -73 -58 -81 -124 -5 -44 -4 -59 7 -66 23 -15 31
-10 25 14 -7 31 17 64 61 82 56 24 90 19 129 -17 19 -18 41 -39 50 -46 21 -19
13 -46 -14 -50 -31 -5 -46 -40 -33 -76 13 -33 31 -30 50 10 22 46 42 64 73 64
26 0 29 3 26 26 -3 29 -17 39 -61 49 -17 3 -31 15 -37 30 -10 26 -104 105
-125 105 -7 0 -19 2 -27 4 -7 2 -27 0 -43 -5z m45 -38 c0 -10 -25 -21 -48 -21
-15 1 -14 3 2 15 22 17 46 20 46 6z"/>
<path d="M116 1821 c-3 -5 8 -11 26 -15 34 -7 44 -3 33 13 -8 13 -52 15 -59 2z"/>
<path d="M1180 1814 c-20 -6 -50 -59 -50 -89 0 -22 41 -65 62 -65 6 0 8 17 4
44 -6 38 -4 45 18 59 17 11 23 22 19 37 -5 19 -19 23 -53 14z"/>
<path d="M520 1807 c0 -2 8 -13 18 -25 14 -16 22 -18 30 -10 8 8 7 15 -6 24
-16 12 -42 19 -42 11z"/>
<path d="M2217 1744 l-77 -65 6 -42 c7 -42 24 -75 24 -46 0 41 113 151 144
141 5 -2 6 4 2 13 -3 9 -6 28 -6 41 0 13 -3 24 -7 24 -5 0 -43 -30 -86 -66z"/>
<path d="M1967 1775 c-34 -33 -34 -36 4 -28 28 5 30 4 27 -18 -2 -14 -18 -33
-40 -48 -21 -14 -38 -32 -38 -43 0 -24 9 -23 42 5 68 57 112 92 120 95 19 8 6
31 -26 46 -46 22 -56 20 -89 -9z"/>
<path d="M95 1770 c-17 -19 -17 -20 1 -20 10 0 27 7 37 14 16 12 16 14 1 20
-21 8 -18 9 -39 -14z"/>
<path d="M1048 1783 c-30 -5 -33 -10 -19 -32 6 -10 13 -11 29 -2 11 6 30 11
41 11 12 0 21 4 21 9 0 9 -26 22 -38 20 -4 -1 -19 -4 -34 -6z"/>
<path d="M709 1760 c-45 -24 -147 -133 -165 -177 -18 -42 -21 -370 -5 -401 6
-12 11 -31 11 -44 1 -13 7 -34 14 -48 19 -34 148 -160 158 -154 16 10 7 40
-19 64 -59 53 -83 97 -97 177 -20 115 -19 225 3 331 21 100 44 146 94 188 18
15 35 40 38 55 4 16 6 29 5 29 0 -1 -17 -9 -37 -20z"/>
<path d="M150 1755 c-27 -16 -45 -54 -31 -68 5 -5 23 -4 46 4 35 13 38 12 56
-11 l20 -25 -3 40 c-2 30 -9 44 -28 57 -29 20 -27 20 -60 3z"/>
<path d="M1233 1753 c-25 -9 -14 -50 16 -63 30 -12 91 -66 91 -81 0 -5 -21 7
-46 26 -44 34 -74 44 -74 27 0 -5 17 -17 38 -26 43 -20 100 -96 119 -160 7
-22 13 -68 13 -102 0 -55 2 -62 25 -72 23 -10 25 -9 25 11 0 12 -5 40 -11 62
-5 22 -15 57 -20 79 -12 47 -46 123 -58 130 -5 3 -7 14 -4 24 3 11 -7 33 -24
53 -15 19 -31 39 -35 44 -31 40 -45 52 -55 48z"/>
<path d="M2681 1741 c-11 -7 -4 -12 27 -21 23 -6 42 -16 42 -21 0 -7 -10 -8
-27 -3 -43 12 -86 10 -90 -3 -3 -8 3 -13 14 -13 10 0 31 -7 47 -15 35 -18 36
-18 36 0 0 8 4 15 10 15 6 0 9 -33 8 -79 -1 -63 3 -84 18 -107 33 -48 46 -102
43 -172 -2 -37 1 -74 6 -82 5 -8 8 -24 6 -35 -4 -23 11 -13 17 13 3 9 4 66 4
125 -1 105 -14 177 -32 177 -20 0 -40 34 -40 69 0 37 23 71 48 71 19 0 15 7
-27 50 -39 41 -78 51 -110 31z"/>
<path d="M1057 1733 c-13 -3 -16 -10 -11 -26 3 -12 7 -23 8 -24 0 -1 13 1 27
4 20 4 27 11 27 29 0 24 -11 28 -51 17z"/>
<path d="M50 1706 c0 -19 4 -22 25 -18 16 3 25 11 25 23 0 14 -7 19 -25 19
-20 0 -25 -5 -25 -24z"/>
<path d="M1916 1714 c-10 -26 10 -33 37 -11 l28 22 -30 0 c-17 0 -33 -5 -35
-11z"/>
<path d="M2274 1695 c-18 -14 -48 -49 -67 -77 -29 -45 -34 -61 -33 -105 1 -35
5 -53 14 -53 6 0 12 7 12 16 0 27 52 117 93 160 58 61 42 108 -19 59z"/>
<path d="M696 1659 c-78 -91 -102 -265 -65 -474 13 -72 25 -96 79 -155 l41
-45 -5 33 c-4 22 -2 31 5 26 6 -3 5 3 -3 15 -7 12 -16 21 -21 21 -4 0 -25 35
-45 78 -37 76 -37 78 -37 202 0 135 5 153 62 220 19 23 28 47 30 77 2 23 1 43
-1 43 -2 0 -20 -19 -40 -41z"/>
<path d="M2027 1671 c-34 -31 -94 -134 -92 -161 1 -8 -3 -20 -8 -27 -15 -20
-9 -184 7 -197 7 -6 19 -20 25 -31 11 -18 12 -18 6 5 -26 92 -5 211 60 348 24
50 42 92 40 92 -2 0 -19 -13 -38 -29z"/>
<path d="M1083 1673 c-7 -2 -13 -16 -13 -30 0 -22 1 -23 16 -9 8 9 25 16 36
16 17 0 18 2 8 15 -13 15 -25 17 -47 8z"/>
<path d="M50 1646 c0 -10 18 -15 60 -18 45 -3 66 -10 85 -28 l25 -23 0 30 c0
30 -2 31 -63 42 -84 14 -107 14 -107 -3z"/>
<path d="M2631 1644 c-12 -14 -26 -15 -70 -3 -8 2 -16 -3 -18 -12 -3 -13 6
-16 56 -17 37 -1 69 -7 84 -17 24 -15 25 -15 30 11 4 22 0 28 -29 40 -40 17
-36 17 -53 -2z"/>
<path d="M2100 1625 c-9 -23 -36 -122 -46 -170 -3 -11 -8 -61 -11 -111 -5 -72
-2 -98 10 -123 8 -17 19 -45 22 -63 4 -18 14 -42 21 -53 12 -17 14 12 15 205
1 124 3 251 5 283 4 61 -1 72 -16 32z"/>
<path d="M2308 1619 c-73 -97 -116 -211 -94 -247 3 -6 12 -41 20 -79 37 -175
53 -213 109 -250 27 -18 65 -35 85 -38 20 -3 55 -9 77 -14 22 -5 41 -9 42 -8
0 1 -1 14 -4 30 -4 22 -11 27 -34 27 -39 0 -207 114 -233 159 -16 29 -20 53
-21 140 0 96 3 112 28 166 16 33 37 69 48 81 15 16 17 27 11 44 -9 23 -9 23
-34 -11z"/>
<path d="M1102 1613 c3 -14 15 -18 60 -20 70 -2 95 -18 144 -88 32 -47 36 -60
31 -95 -4 -33 -1 -45 16 -60 11 -11 22 -19 23 -17 11 11 -33 161 -59 205 -40
67 -84 92 -162 92 -48 0 -56 -3 -53 -17z"/>
<path d="M2894 1606 c-3 -8 2 -35 10 -60 9 -26 16 -65 16 -88 0 -35 2 -39 15
-28 11 9 15 35 15 101 0 89 0 89 -25 89 -14 0 -28 -6 -31 -14z"/>
<path d="M50 1593 c0 -14 10 -19 47 -21 25 -2 53 -7 62 -11 18 -10 41 -4 41
10 0 16 -66 39 -110 39 -31 0 -40 -4 -40 -17z"/>
<path d="M1926 1602 c-6 -11 -16 -62 -11 -62 2 0 12 16 24 35 16 27 17 35 6
35 -7 0 -16 -4 -19 -8z"/>
<path d="M2543 1594 c-7 -3 -13 -16 -13 -28 0 -19 4 -22 30 -18 18 3 47 -5 79
-21 51 -25 61 -22 61 17 0 28 -120 66 -157 50z"/>
<path d="M2328 1552 c-49 -118 -59 -168 -52 -250 5 -51 13 -78 29 -99 l23 -28
-5 28 c-4 18 0 34 12 47 12 13 14 23 7 37 -18 34 -22 89 -12 143 6 29 12 56
15 58 11 12 13 -5 5 -48 -6 -28 -5 -68 2 -108 13 -70 35 -80 30 -12 -3 28 0
40 7 35 6 -3 11 -17 11 -31 0 -27 24 -33 34 -8 4 12 2 15 -9 10 -9 -3 -15 0
-15 8 0 7 -7 19 -16 27 -9 8 -14 22 -11 37 3 13 -2 47 -9 76 -8 28 -14 63 -14
78 0 41 -15 41 -32 0z"/>
<path d="M217 1558 c-28 -40 -115 -57 -150 -28 -17 14 -18 12 -15 -25 4 -53
38 -72 97 -54 57 17 93 58 89 100 l-3 34 -18 -27z"/>
<path d="M697 1531 c-22 -40 -28 -65 -31 -133 -3 -45 0 -105 6 -132 10 -47 62
-176 71 -176 13 0 -10 104 -35 159 -32 72 -32 119 3 199 20 46 34 132 22 132
-5 0 -20 -22 -36 -49z"/>
<path d="M1130 1568 c0 -3 18 -18 40 -33 22 -15 38 -31 35 -35 -3 -4 3 -14 13
-21 15 -13 16 -12 3 4 -11 14 -11 17 1 17 15 0 31 -26 43 -68 4 -13 9 -21 13
-18 3 3 14 -1 24 -11 17 -15 18 -15 18 8 0 31 -52 113 -84 135 -24 15 -106 32
-106 22z"/>
<path d="M1412 1553 c-7 -12 -7 -25 0 -37 5 -10 21 -54 34 -99 l24 -82 -4 75
c-6 93 -15 136 -32 150 -9 9 -15 7 -22 -7z"/>
<path d="M65 1550 c3 -5 25 -9 48 -9 40 1 40 2 12 9 -44 11 -67 11 -60 0z"/>
<path d="M2855 1536 c-19 -20 -19 -22 -3 -56 23 -48 30 -191 11 -247 -8 -23
-13 -52 -11 -65 6 -32 37 69 45 143 6 63 -5 250 -15 248 -4 -1 -16 -11 -27
-23z"/>
<path d="M2527 1523 c-3 -5 -8 -24 -12 -43 l-8 -35 28 28 c38 37 111 34 137
-7 4 -6 10 -7 14 -3 11 11 -15 32 -64 51 -45 17 -88 21 -95 9z"/>
<path d="M1488 1387 c1 -73 -2 -143 -7 -157 -9 -27 2 -165 11 -140 19 48 38
124 43 166 3 27 7 63 10 79 4 24 1 32 -17 40 -28 12 -35 48 -14 79 14 22 13
25 -7 44 l-22 21 3 -132z"/>
<path d="M206 1455 c-15 -14 -34 -25 -42 -25 -7 0 -14 -4 -14 -10 0 -5 7 -10
15 -10 9 0 28 -6 44 -14 l27 -15 3 50 c1 27 0 49 -2 49 -2 0 -16 -11 -31 -25z"/>
<path d="M2536 1450 c-22 -20 -36 -43 -41 -68 -3 -20 -9 -47 -11 -58 -5 -18 0
-22 25 -26 33 -5 42 6 15 16 -24 9 -12 85 16 108 45 36 110 10 110 -43 0 -16
4 -29 8 -29 5 0 8 21 7 46 -1 82 -66 109 -129 54z"/>
<path d="M2749 1465 c-7 -26 13 -195 22 -195 14 0 19 55 10 100 -22 103 -27
116 -32 95z"/>
<path d="M713 1393 c-8 -54 -7 -74 5 -103 8 -19 17 -29 19 -22 3 6 9 10 14 6
5 -3 9 2 9 11 0 9 -4 13 -10 10 -12 -7 -12 -3 -15 88 -1 37 -4 70 -7 73 -3 3
-10 -25 -15 -63z"/>
<path d="M1525 1440 c-10 -16 4 -50 21 -50 11 0 14 8 12 27 -3 28 -22 41 -33
23z"/>
<path d="M2546 1401 c-23 -26 -18 -75 9 -79 20 -4 20 -4 0 11 -17 13 -18 18
-7 41 19 43 72 28 72 -19 0 -23 -23 -48 -54 -59 -19 -6 -19 -7 0 -21 17 -12
22 -11 41 7 28 26 38 70 22 100 -22 43 -55 50 -83 19z"/>
<path d="M50 1361 c0 -47 2 -51 18 -42 24 13 124 -11 154 -36 9 -8 18 -11 20
-6 4 7 3 54 -1 74 -2 11 -103 48 -148 55 l-43 7 0 -52z"/>
<path d="M1575 1373 c-4 -16 -9 -44 -11 -63 -2 -19 -6 -50 -9 -69 l-7 -34 28
32 c15 18 30 49 34 70 6 37 -5 91 -20 91 -4 0 -11 -12 -15 -27z"/>
<path d="M2566 1364 c-8 -21 -1 -28 19 -20 9 3 15 11 13 18 -7 19 -25 20 -32
2z"/>
<path d="M2925 1318 c-10 -84 -28 -142 -59 -187 -20 -29 -24 -42 -18 -66 9
-32 9 -32 50 45 34 64 54 134 54 197 1 81 -18 89 -27 11z"/>
<path d="M52 1284 c2 -9 11 -18 22 -20 50 -7 123 -28 136 -39 34 -28 42 -29
35 -4 -9 30 -43 58 -71 59 -11 0 -24 3 -27 6 -4 4 -27 9 -53 11 -39 3 -45 1
-42 -13z"/>
<path d="M2379 1250 c-31 -31 -35 -39 -28 -65 10 -35 61 -70 87 -60 15 6 13
10 -12 30 -27 22 -28 25 -17 53 7 16 11 41 9 54 -3 23 -4 23 -39 -12z"/>
<path d="M2473 1274 c-3 -8 -4 -16 -2 -17 2 -1 22 -11 44 -22 22 -10 52 -28
68 -38 41 -28 33 -7 -16 41 -47 46 -84 60 -94 36z"/>
<path d="M1450 1256 c0 -14 5 -28 10 -31 6 -4 10 7 10 24 0 17 -4 31 -10 31
-5 0 -10 -11 -10 -24z"/>
<path d="M1603 1247 c-35 -40 -57 -91 -49 -112 3 -8 17 -20 30 -27 30 -13 56
2 56 32 0 10 12 28 26 39 28 22 27 49 -4 84 -21 23 -26 22 -59 -16z"/>
<path d="M2610 1262 c-21 -17 -21 -18 -3 -34 18 -17 19 -16 30 12 14 37 2 46
-27 22z"/>
<path d="M1916 1218 c2 -52 2 -52 96 -140 51 -48 95 -87 98 -88 3 0 4 19 2 42
-4 38 -13 50 -81 115 -43 40 -84 84 -91 98 -20 38 -27 30 -24 -27z"/>
<path d="M48 1224 c3 -26 8 -30 26 -27 12 3 45 -7 73 -21 28 -14 55 -26 61
-26 5 0 15 -7 22 -15 17 -20 29 -19 25 3 -2 9 -4 22 -4 29 -1 14 -66 46 -146
70 l-60 19 3 -32z"/>
<path d="M2761 1044 c0 -173 3 -216 12 -203 49 64 67 82 67 71 0 -26 -31 -72
-59 -86 -23 -12 -27 -20 -23 -41 7 -40 72 -58 134 -39 25 8 75 85 73 112 -1
13 2 25 7 28 18 11 6 20 -22 16 -18 -3 -30 0 -30 7 0 6 -9 11 -20 11 -30 0
-59 38 -66 89 -3 25 -12 56 -20 68 -11 18 -11 23 1 33 21 17 19 44 -5 65 -13
12 -17 22 -11 29 11 13 5 24 -21 45 -17 12 -18 1 -17 -205z m149 -174 c0 -24
-32 -70 -65 -96 -46 -34 -57 -25 -14 13 17 15 38 43 45 61 14 30 34 44 34 22z"/>
<path d="M2460 1195 c0 -33 4 -38 43 -55 52 -24 80 -25 98 -4 11 14 10 18 -6
31 -26 19 -114 63 -126 63 -5 0 -9 -16 -9 -35z"/>
<path d="M50 1155 c0 -14 6 -26 13 -26 6 -1 23 -3 37 -4 47 -4 103 -24 126
-46 l24 -22 0 24 c0 25 -15 35 -90 60 -19 7 -39 15 -45 19 -5 4 -22 10 -37 14
-25 6 -28 4 -28 -19z"/>
<path d="M2925 1114 c-16 -35 -37 -72 -47 -81 -18 -16 -26 -63 -10 -63 11 1
69 82 82 115 14 35 19 84 10 90 -3 2 -19 -25 -35 -61z"/>
<path d="M1157 1135 c3 -21 0 -35 -11 -44 -19 -16 -21 -61 -3 -61 35 0 47 24
40 81 -3 36 -10 56 -18 56 -9 0 -12 -10 -8 -32z"/>
<path d="M1675 1132 c-4 -23 -28 -70 -60 -115 -38 -53 -50 -77 -39 -77 17 0
19 2 82 74 38 44 42 54 42 102 0 62 -15 72 -25 16z"/>
<path d="M1035 1151 c-3 -6 -17 -11 -31 -11 -13 0 -24 -4 -24 -10 0 -16 46
-12 60 5 7 9 10 18 7 21 -3 3 -8 1 -12 -5z"/>
<path d="M1068 1137 c-38 -15 -35 -24 9 -36 41 -12 63 -1 63 30 0 22 -28 24
-72 6z"/>
<path d="M1913 1112 c4 -24 27 -55 84 -113 43 -44 82 -87 86 -95 14 -24 27
-15 27 19 0 23 -7 37 -22 47 -13 8 -58 51 -101 95 -76 77 -79 79 -74 47z"/>
<path d="M1520 1117 c0 -10 -14 -45 -32 -77 -17 -33 -28 -63 -24 -67 8 -8 44
31 75 83 18 30 18 31 0 55 -16 20 -19 21 -19 6z"/>
<path d="M2458 1119 c-26 -15 -22 -23 20 -42 49 -21 55 -21 69 2 11 17 9 20
-17 26 -16 4 -32 11 -35 16 -8 11 -15 11 -37 -2z"/>
<path d="M40 1111 c0 -18 33 -42 51 -38 28 8 126 -60 216 -150 44 -43 100 -94
124 -114 24 -20 41 -40 36 -45 -4 -4 -20 4 -35 18 -15 13 -43 35 -63 47 -20
11 -56 44 -79 71 -46 54 -180 150 -210 150 -10 0 -21 6 -23 13 -3 6 -6 0 -6
-14 -1 -35 16 -55 69 -77 70 -30 247 -174 277 -226 6 -10 21 -12 60 -6 67 8
75 17 39 44 -17 11 -50 41 -76 66 -25 25 -73 70 -106 100 -33 31 -71 70 -83
87 -24 32 -37 39 -128 67 -61 19 -63 19 -63 7z"/>
<path d="M985 1100 c-14 -23 101 -87 121 -67 14 14 -7 36 -40 42 -19 4 -40 13
-47 21 -13 16 -25 18 -34 4z"/>
<path d="M2579 1094 c-18 -21 -18 -90 0 -106 9 -8 11 -8 7 -1 -3 6 -1 35 5 63
12 57 9 69 -12 44z"/>
<path d="M523 1069 c-7 -18 -9 -39 -4 -53 13 -31 79 -108 113 -130 29 -19 30
-19 51 3 l22 23 -25 16 c-45 31 -120 110 -133 141 l-13 30 -11 -30z"/>
<path d="M1565 1059 c-4 -12 -23 -39 -43 -61 -34 -37 -34 -39 -14 -45 12 -3
24 -6 26 -7 3 0 26 29 50 67 l46 67 -29 0 c-21 0 -32 -6 -36 -21z"/>
<path d="M1912 1022 c1 -39 5 -45 51 -79 28 -19 72 -56 99 -81 47 -44 48 -44
48 -18 0 14 -6 26 -13 26 -11 0 -36 26 -149 153 l-37 42 1 -43z"/>
<path d="M1181 1029 c-29 -24 -100 -25 -147 -3 -42 20 -53 13 -25 -15 28 -28
66 -30 159 -9 53 11 57 14 44 35 -5 8 -14 6 -31 -8z"/>
<path d="M2927 1005 c-32 -50 -33 -57 -7 -67 26 -10 62 61 46 91 -11 19 -13
18 -39 -24z"/>
<path d="M2300 1027 c0 -18 11 -29 60 -63 53 -36 190 -87 190 -70 0 2 6 19 14
37 l14 34 -61 1 c-78 2 -134 17 -181 49 -21 14 -36 19 -36 12z"/>
<path d="M1663 990 c-39 -46 -40 -49 -10 -43 13 3 28 17 36 34 21 47 9 51 -26
9z"/>
<path d="M476 1001 c-7 -11 154 -172 165 -165 17 10 9 24 -24 37 -34 15 -91
73 -109 113 -12 25 -23 30 -32 15z"/>
<path d="M1155 977 c-48 -16 -67 -18 -97 -10 -21 6 -38 7 -38 4 1 -16 19 -32
36 -32 36 -1 185 19 191 25 6 6 -16 37 -26 35 -3 -1 -33 -11 -66 -22z"/>
<path d="M435 972 c5 -28 156 -174 173 -167 10 4 -6 27 -59 80 -40 41 -75 79
-78 83 -3 5 -14 11 -23 15 -12 4 -16 1 -13 -11z"/>
<path d="M81 952 c11 -32 44 -73 56 -71 4 1 13 1 20 0 11 -1 98 -69 150 -117
14 -13 32 -24 39 -24 7 0 21 -3 31 -7 38 -13 -150 141 -274 225 l-32 22 10
-28z"/>
<path d="M2313 965 c3 -11 8 -29 11 -40 8 -26 75 -53 155 -62 54 -5 61 -8 40
-15 -34 -14 -110 -3 -158 22 -23 11 -41 16 -41 10 0 -5 4 -10 9 -10 8 0 15
-23 28 -95 6 -33 20 -39 93 -43 l69 -4 9 38 c24 95 24 104 -3 104 -41 0 -147
48 -183 83 -27 25 -33 28 -29 12z m166 -161 c21 -7 -6 -34 -35 -34 -25 0 -57
27 -49 40 5 8 48 5 84 -6z"/>
<path d="M378 921 c26 -21 53 -45 61 -55 35 -42 110 -96 126 -90 12 5 -4 26
-75 93 -77 73 -97 87 -126 88 l-33 1 47 -37z"/>
<path d="M1430 950 c0 -5 -11 -12 -25 -16 -14 -3 -25 -12 -25 -19 0 -23 -74
-93 -125 -119 -48 -24 -49 -25 -23 -31 17 -4 39 -1 59 9 37 19 129 87 129 97
0 3 11 22 24 42 13 19 22 38 18 41 -9 10 -32 7 -32 -4z"/>
<path d="M1912 885 c0 -46 3 -75 9 -75 6 0 34 -16 63 -35 60 -40 109 -46 125
-16 9 16 -2 31 -82 103 -50 45 -93 86 -95 91 -11 23 -18 -2 -20 -68z m90 -50
c35 -24 72 -51 83 -59 39 -28 8 -25 -46 3 -55 30 -133 101 -111 101 7 0 40
-20 74 -45z"/>
<path d="M1235 941 c-10 -9 -82 -19 -153 -20 -30 -1 -32 -3 -21 -22 10 -20 17
-21 85 -16 72 5 136 29 138 52 1 14 -37 18 -49 6z"/>
<path d="M1465 914 c-8 -13 -15 -28 -15 -34 0 -21 -86 -98 -122 -110 -21 -6
-38 -13 -38 -16 0 -2 24 -4 53 -4 47 0 59 5 94 35 23 19 55 57 71 83 l30 48
-29 11 c-25 10 -30 8 -44 -13z"/>
<path d="M1620 898 c-11 -18 -20 -37 -20 -43 1 -11 60 55 60 67 0 19 -22 5
-40 -24z"/>
<path d="M1288 906 c-40 -39 -152 -63 -189 -40 -31 19 2 -22 38 -49 39 -28 44
-29 74 -17 41 17 149 97 149 110 0 15 -56 12 -72 -4z"/>
<path d="M1574 910 c-12 -4 -33 -29 -48 -53 -14 -25 -43 -59 -63 -76 -48 -40
-34 -39 42 2 48 26 64 41 82 77 31 64 30 68 -13 50z"/>
<path d="M115 850 c3 -5 11 -7 18 -4 7 2 25 -8 42 -23 30 -28 94 -67 101 -61
7 8 -126 98 -146 98 -12 0 -19 -4 -15 -10z"/>
<path d="M1909 773 c5 -21 15 -29 35 -31 16 -2 33 1 39 7 8 8 7 11 -5 11 -8 0
-27 9 -41 20 -33 26 -37 25 -28 -7z"/>
<path d="M2943 770 c-29 -36 -29 -38 2 -32 20 3 25 10 25 33 0 16 -1 29 -2 28
-2 0 -13 -13 -25 -29z"/>
</g>
</svg>
